<svg xmlns="http://www.w3.org/2000/svg" width="1320" height="760" viewBox="0 0 1320 760"><defs><filter id="s" x="-20%" y="-20%" width="140%" height="150%"><feDropShadow dx="0" dy="4" stdDeviation="5" flood-opacity=".18"/></filter></defs><g font-family="Microsoft YaHei, PingFang SC, sans-serif"><rect width="1320" height="760" rx="20" fill="#e8ddd0"/><text x="32" y="48" font-size="25" fill="#8a4b33" >四种阅读小票 · 四种不同的排版</text><text x="32" y="80" font-size="14" fill="#6f5f4f" >按实际样式还原：经典打印条 / 粉彩咖啡订单 / 复古宽幅流水表 / 印章留存</text><g transform="translate(32 145) scale(.78)"><polygon points="0,3 4,0 8,3 12,0 16,3 20,0 24,3 28,0 32,3 36,0 40,3 44,0 48,3 52,0 56,3 60,0 64,3 68,0 72,3 76,0 80,3 84,0 88,3 92,0 96,3 100,0 104,3 108,0 112,3 116,0 120,3 124,0 128,3 132,0 136,3 140,0 144,3 148,0 152,3 156,0 160,3 164,0 168,3 172,0 176,3 180,0 184,3 188,0 192,3 196,0 200,3 204,0 208,3 212,0 216,3 220,0 224,3 228,0 232,3 236,0 240,3 244,0 248,3 252,0 256,3 260,0 264,3 268,0 272,3 276,0 280,3 284,0 288,3 292,0 296,3 300,0 304,3 308,0 312,3 316,0 320,3 320,467 0,470" fill="#faf9f3" filter="url(#s)"/><text x="160" y="43" font-size="19" fill="#332d29" text-anchor="middle" font-weight="bold" letter-spacing="3">读书记录单</text><text x="160" y="64" font-size="9" fill="#332d29" text-anchor="middle">2026.09 / MONTHLY RECEIPT</text><path d="M22 82h276" stroke="#6f5f4f" stroke-width=".7" stroke-dasharray="3 2"/><text x="22" y="103" font-size="9" fill="#332d29" >书目 / TITLE</text><text x="298" y="103" font-size="9" fill="#332d29" text-anchor="end">时长</text><text x="22" y="132" font-size="11" fill="#332d29" >漫步书页之间</text><text x="298" y="132" font-size="10" fill="#332d29" text-anchor="end">420 min</text><text x="22" y="151" font-size="9" fill="#7d7467" >演示作者</text><text x="298" y="151" font-size="9" fill="#332d29" text-anchor="end" font-weight="bold">[已读完]</text><path d="M22 164h276" stroke="#6f5f4f" stroke-width=".7" /><text x="22" y="190" font-size="11" fill="#332d29" >山海与远方</text><text x="298" y="190" font-size="10" fill="#332d29" text-anchor="end">360 min</text><text x="22" y="209" font-size="9" fill="#7d7467" >演示作者</text><text x="298" y="209" font-size="9" fill="#332d29" text-anchor="end" font-weight="bold">[已读完]</text><path d="M22 222h276" stroke="#6f5f4f" stroke-width=".7" /><text x="22" y="248" font-size="11" fill="#332d29" >缓慢的时光</text><text x="298" y="248" font-size="10" fill="#332d29" text-anchor="end">300 min</text><text x="22" y="267" font-size="9" fill="#7d7467" >演示作者</text><text x="298" y="267" font-size="9" fill="#8b8278" text-anchor="end">在读</text><path d="M22 280h276" stroke="#6f5f4f" stroke-width=".7" /><text x="22" y="306" font-size="11" fill="#332d29" >一间自己的书房</text><text x="298" y="306" font-size="10" fill="#332d29" text-anchor="end">180 min</text><text x="22" y="325" font-size="9" fill="#7d7467" >演示作者</text><text x="298" y="325" font-size="9" fill="#8b8278" text-anchor="end">在读</text><path d="M22 338h276" stroke="#6f5f4f" stroke-width=".7" /><path d="M22 360h276" stroke="#6f5f4f" stroke-width=".7" stroke-dasharray="3 2"/><text x="22" y="384" font-size="13" fill="#332d29" >合计 4 本</text><text x="298" y="384" font-size="13" fill="#332d29" text-anchor="end" font-weight="bold">21小时</text><text x="160" y="413" font-size="10" fill="#332d29" text-anchor="middle">本月与书为伴，感谢阅读。</text><rect x="54.0" y="430" width="2" height="20" fill="#332d29"/><rect x="57.5" y="430" width="1" height="20" fill="#332d29"/><rect x="61.0" y="430" width="1" height="20" fill="#332d29"/><rect x="64.5" y="430" width="2" height="20" fill="#332d29"/><rect x="68.0" y="430" width="1" height="20" fill="#332d29"/><rect x="71.5" y="430" width="1" height="20" fill="#332d29"/><rect x="75.0" y="430" width="2" height="20" fill="#332d29"/><rect x="78.5" y="430" width="1" height="20" fill="#332d29"/><rect x="82.0" y="430" width="1" height="20" fill="#332d29"/><rect x="85.5" y="430" width="2" height="20" fill="#332d29"/><rect x="89.0" y="430" width="1" height="20" fill="#332d29"/><rect x="92.5" y="430" width="1" height="20" fill="#332d29"/><rect x="96.0" y="430" width="2" height="20" fill="#332d29"/><rect x="99.5" y="430" width="1" height="20" fill="#332d29"/><rect x="103.0" y="430" width="1" height="20" fill="#332d29"/><rect x="106.5" y="430" width="2" height="20" fill="#332d29"/><rect x="110.0" y="430" width="1" height="20" fill="#332d29"/><rect x="113.5" y="430" width="1" height="20" fill="#332d29"/><rect x="117.0" y="430" width="2" height="20" fill="#332d29"/><rect x="120.5" y="430" width="1" height="20" fill="#332d29"/><rect x="124.0" y="430" width="1" height="20" fill="#332d29"/><rect x="127.5" y="430" width="2" height="20" fill="#332d29"/><rect x="131.0" y="430" width="1" height="20" fill="#332d29"/><rect x="134.5" y="430" width="1" height="20" fill="#332d29"/><rect x="138.0" y="430" width="2" height="20" fill="#332d29"/><rect x="141.5" y="430" width="1" height="20" fill="#332d29"/><rect x="145.0" y="430" width="1" height="20" fill="#332d29"/><rect x="148.5" y="430" width="2" height="20" fill="#332d29"/><rect x="152.0" y="430" width="1" height="20" fill="#332d29"/><rect x="155.5" y="430" width="1" height="20" fill="#332d29"/><rect x="159.0" y="430" width="2" height="20" fill="#332d29"/><rect x="162.5" y="430" width="1" height="20" fill="#332d29"/><rect x="166.0" y="430" width="1" height="20" fill="#332d29"/><rect x="169.5" y="430" width="2" height="20" fill="#332d29"/><rect x="173.0" y="430" width="1" height="20" fill="#332d29"/><rect x="176.5" y="430" width="1" height="20" fill="#332d29"/><rect x="180.0" y="430" width="2" height="20" fill="#332d29"/><rect x="183.5" y="430" width="1" height="20" fill="#332d29"/><rect x="187.0" y="430" width="1" height="20" fill="#332d29"/><rect x="190.5" y="430" width="2" height="20" fill="#332d29"/><rect x="194.0" y="430" width="1" height="20" fill="#332d29"/><rect x="197.5" y="430" width="1" height="20" fill="#332d29"/><rect x="201.0" y="430" width="2" height="20" fill="#332d29"/><rect x="204.5" y="430" width="1" height="20" fill="#332d29"/><rect x="208.0" y="430" width="1" height="20" fill="#332d29"/><rect x="211.5" y="430" width="2" height="20" fill="#332d29"/><rect x="215.0" y="430" width="1" height="20" fill="#332d29"/><rect x="218.5" y="430" width="1" height="20" fill="#332d29"/><rect x="222.0" y="430" width="2" height="20" fill="#332d29"/><rect x="225.5" y="430" width="1" height="20" fill="#332d29"/><rect x="229.0" y="430" width="1" height="20" fill="#332d29"/><rect x="232.5" y="430" width="2" height="20" fill="#332d29"/><rect x="236.0" y="430" width="1" height="20" fill="#332d29"/><rect x="239.5" y="430" width="1" height="20" fill="#332d29"/><rect x="243.0" y="430" width="2" height="20" fill="#332d29"/><rect x="246.5" y="430" width="1" height="20" fill="#332d29"/><rect x="250.0" y="430" width="1" height="20" fill="#332d29"/><rect x="253.5" y="430" width="2" height="20" fill="#332d29"/><rect x="257.0" y="430" width="1" height="20" fill="#332d29"/><rect x="260.5" y="430" width="1" height="20" fill="#332d29"/><rect x="-8" y="470" width="336" height="7" rx="2" fill="#373630"/><text x="160.0" y="506" font-size="17" fill="#8a4b33" text-anchor="middle">经典</text></g><g transform="translate(307 145) scale(.78)"><polygon points="0,3 4,0 8,3 12,0 16,3 20,0 24,3 28,0 32,3 36,0 40,3 44,0 48,3 52,0 56,3 60,0 64,3 68,0 72,3 76,0 80,3 84,0 88,3 92,0 96,3 100,0 104,3 108,0 112,3 116,0 120,3 124,0 128,3 132,0 136,3 140,0 144,3 148,0 152,3 156,0 160,3 164,0 168,3 172,0 176,3 180,0 184,3 188,0 192,3 196,0 200,3 204,0 208,3 212,0 216,3 220,0 224,3 228,0 232,3 236,0 240,3 244,0 248,3 252,0 256,3 260,0 264,3 268,0 272,3 276,0 280,3 284,0 288,3 292,0 296,3 300,0 300,3 300,577 0,580" fill="#f3dbde" filter="url(#s)"/><text x="150" y="49" font-size="23" fill="#332d29" text-anchor="middle" font-family="Georgia,SimSun,serif" letter-spacing="2">读书记录单</text><text x="150" y="73" font-size="9" fill="#332d29" text-anchor="middle" letter-spacing="4">READING CAFÉ</text><path d="M22 91h256" stroke="#6f5f4f" stroke-width=".7" /><text x="22" y="115" font-size="10" fill="#332d29" >阅读订单</text><text x="278" y="115" font-size="10" fill="#332d29" text-anchor="end">2026.09</text><text x="22" y="134" font-size="9" fill="#8f6b70" >FOR HERE · 慢慢读</text><path d="M22 149h256" stroke="#6f5f4f" stroke-width=".7" stroke-dasharray="3 2"/><rect x="22" y="166" width="15" height="15" rx="4" fill="#ffffff55" stroke="#8f5c65"/><text x="23" y="179" font-size="15" fill="#8f5c65" >✓</text><text x="46" y="179" font-size="11" fill="#332d29" >漫步书页之间</text><text x="278" y="179" font-size="10" fill="#332d29" text-anchor="end">420m</text><text x="46" y="196" font-size="9" fill="#8f6b70" >演示作者</text><text x="46" y="213" font-size="9" fill="#8f5c65" >已读完 · well read ♡</text><path d="M22 228h256" stroke="#6f5f4f" stroke-width=".7" stroke-dasharray="3 2"/><rect x="22" y="238" width="15" height="15" rx="4" fill="#ffffff55" stroke="#8f5c65"/><text x="23" y="251" font-size="15" fill="#8f5c65" >✓</text><text x="46" y="251" font-size="11" fill="#332d29" >山海与远方</text><text x="278" y="251" font-size="10" fill="#332d29" text-anchor="end">360m</text><text x="46" y="268" font-size="9" fill="#8f6b70" >演示作者</text><text x="46" y="285" font-size="9" fill="#8f5c65" >已读完 · well read ♡</text><path d="M22 300h256" stroke="#6f5f4f" stroke-width=".7" stroke-dasharray="3 2"/><text x="22" y="323" font-size="10" fill="#98747a" >03</text><text x="46" y="323" font-size="11" fill="#332d29" >缓慢的时光</text><text x="278" y="323" font-size="10" fill="#332d29" text-anchor="end">300m</text><text x="46" y="340" font-size="9" fill="#8f6b70" >演示作者</text><text x="46" y="357" font-size="9" fill="#8f5c65" >在读</text><path d="M22 372h256" stroke="#6f5f4f" stroke-width=".7" stroke-dasharray="3 2"/><text x="22" y="395" font-size="10" fill="#98747a" >04</text><text x="46" y="395" font-size="11" fill="#332d29" >一间自己的书房</text><text x="278" y="395" font-size="10" fill="#332d29" text-anchor="end">180m</text><text x="46" y="412" font-size="9" fill="#8f6b70" >演示作者</text><text x="46" y="429" font-size="9" fill="#8f5c65" >在读</text><path d="M22 444h256" stroke="#6f5f4f" stroke-width=".7" stroke-dasharray="3 2"/><path d="M22 455h256" stroke="#6f5f4f" stroke-width=".7" /><text x="22" y="477" font-size="12" fill="#332d29" font-weight="bold">READING TIME</text><text x="278" y="477" font-size="12" fill="#332d29" text-anchor="end" font-weight="bold">1260 MIN</text><text x="22" y="497" font-size="9" fill="#8f6b70" >4 本书 · 一个月的陪伴</text><text x="150" y="533" font-size="16" fill="#332d29" text-anchor="middle" font-family="Georgia" font-style="italic">take your time,</text><text x="150" y="556" font-size="16" fill="#332d29" text-anchor="middle" font-family="Georgia" font-style="italic">read something good.</text><rect x="-8" y="580" width="316" height="7" rx="2" fill="#373630"/><text x="150.0" y="616" font-size="17" fill="#8a4b33" text-anchor="middle">粉彩</text></g><g transform="translate(565 145) scale(.78)"><polygon points="0,3 4,0 8,3 12,0 16,3 20,0 24,3 28,0 32,3 36,0 40,3 44,0 48,3 52,0 56,3 60,0 64,3 68,0 72,3 76,0 80,3 84,0 88,3 92,0 96,3 100,0 104,3 108,0 112,3 116,0 120,3 124,0 128,3 132,0 136,3 140,0 144,3 148,0 152,3 156,0 160,3 164,0 168,3 172,0 176,3 180,0 184,3 188,0 192,3 196,0 200,3 204,0 208,3 212,0 216,3 220,0 224,3 228,0 232,3 236,0 240,3 244,0 248,3 252,0 256,3 260,0 264,3 268,0 272,3 276,0 280,3 284,0 288,3 292,0 296,3 300,0 304,3 308,0 312,3 316,0 320,3 324,0 328,3 332,0 336,3 340,0 344,3 348,0 352,3 356,0 360,3 364,0 368,3 372,0 376,3 380,0 384,3 388,0 392,3 396,0 400,3 404,0 408,3 412,0 416,3 420,0 424,3 428,0 432,3 436,0 440,3 444,0 448,3 452,0 456,3 460,0 464,3 468,0 472,3 476,0 480,3 484,0 488,3 492,0 496,3 500,0 500,3 500,397 0,400" fill="#f5f0e6" filter="url(#s)"/><rect x="17" y="4" width="466" height="18" fill="#705539" opacity=".025"/><rect x="17" y="40" width="466" height="18" fill="#705539" opacity=".025"/><rect x="17" y="76" width="466" height="18" fill="#705539" opacity=".025"/><rect x="17" y="112" width="466" height="18" fill="#705539" opacity=".025"/><rect x="17" y="148" width="466" height="18" fill="#705539" opacity=".025"/><rect x="17" y="184" width="466" height="18" fill="#705539" opacity=".025"/><rect x="17" y="220" width="466" height="18" fill="#705539" opacity=".025"/><rect x="17" y="256" width="466" height="18" fill="#705539" opacity=".025"/><rect x="17" y="292" width="466" height="18" fill="#705539" opacity=".025"/><rect x="17" y="328" width="466" height="18" fill="#705539" opacity=".025"/><rect x="17" y="364" width="466" height="18" fill="#705539" opacity=".025"/><circle cx="10" cy="12" r="3.5" fill="#e8ddd0" stroke="#b9ac97" stroke-width=".6"/><circle cx="10" cy="36" r="3.5" fill="#e8ddd0" stroke="#b9ac97" stroke-width=".6"/><circle cx="10" cy="60" r="3.5" fill="#e8ddd0" stroke="#b9ac97" stroke-width=".6"/><circle cx="10" cy="84" r="3.5" fill="#e8ddd0" stroke="#b9ac97" stroke-width=".6"/><circle cx="10" cy="108" r="3.5" fill="#e8ddd0" stroke="#b9ac97" stroke-width=".6"/><circle cx="10" cy="132" r="3.5" fill="#e8ddd0" stroke="#b9ac97" stroke-width=".6"/><circle cx="10" cy="156" r="3.5" fill="#e8ddd0" stroke="#b9ac97" stroke-width=".6"/><circle cx="10" cy="180" r="3.5" fill="#e8ddd0" stroke="#b9ac97" stroke-width=".6"/><circle cx="10" cy="204" r="3.5" fill="#e8ddd0" stroke="#b9ac97" stroke-width=".6"/><circle cx="10" cy="228" r="3.5" fill="#e8ddd0" stroke="#b9ac97" stroke-width=".6"/><circle cx="10" cy="252" r="3.5" fill="#e8ddd0" stroke="#b9ac97" stroke-width=".6"/><circle cx="10" cy="276" r="3.5" fill="#e8ddd0" stroke="#b9ac97" stroke-width=".6"/><circle cx="10" cy="300" r="3.5" fill="#e8ddd0" stroke="#b9ac97" stroke-width=".6"/><circle cx="10" cy="324" r="3.5" fill="#e8ddd0" stroke="#b9ac97" stroke-width=".6"/><circle cx="10" cy="348" r="3.5" fill="#e8ddd0" stroke="#b9ac97" stroke-width=".6"/><circle cx="10" cy="372" r="3.5" fill="#e8ddd0" stroke="#b9ac97" stroke-width=".6"/><circle cx="10" cy="396" r="3.5" fill="#e8ddd0" stroke="#b9ac97" stroke-width=".6"/><circle cx="490" cy="12" r="3.5" fill="#e8ddd0" stroke="#b9ac97" stroke-width=".6"/><circle cx="490" cy="36" r="3.5" fill="#e8ddd0" stroke="#b9ac97" stroke-width=".6"/><circle cx="490" cy="60" r="3.5" fill="#e8ddd0" stroke="#b9ac97" stroke-width=".6"/><circle cx="490" cy="84" r="3.5" fill="#e8ddd0" stroke="#b9ac97" stroke-width=".6"/><circle cx="490" cy="108" r="3.5" fill="#e8ddd0" stroke="#b9ac97" stroke-width=".6"/><circle cx="490" cy="132" r="3.5" fill="#e8ddd0" stroke="#b9ac97" stroke-width=".6"/><circle cx="490" cy="156" r="3.5" fill="#e8ddd0" stroke="#b9ac97" stroke-width=".6"/><circle cx="490" cy="180" r="3.5" fill="#e8ddd0" stroke="#b9ac97" stroke-width=".6"/><circle cx="490" cy="204" r="3.5" fill="#e8ddd0" stroke="#b9ac97" stroke-width=".6"/><circle cx="490" cy="228" r="3.5" fill="#e8ddd0" stroke="#b9ac97" stroke-width=".6"/><circle cx="490" cy="252" r="3.5" fill="#e8ddd0" stroke="#b9ac97" stroke-width=".6"/><circle cx="490" cy="276" r="3.5" fill="#e8ddd0" stroke="#b9ac97" stroke-width=".6"/><circle cx="490" cy="300" r="3.5" fill="#e8ddd0" stroke="#b9ac97" stroke-width=".6"/><circle cx="490" cy="324" r="3.5" fill="#e8ddd0" stroke="#b9ac97" stroke-width=".6"/><circle cx="490" cy="348" r="3.5" fill="#e8ddd0" stroke="#b9ac97" stroke-width=".6"/><circle cx="490" cy="372" r="3.5" fill="#e8ddd0" stroke="#b9ac97" stroke-width=".6"/><circle cx="490" cy="396" r="3.5" fill="#e8ddd0" stroke="#b9ac97" stroke-width=".6"/><path d="M19 0v400" stroke="#baad99" stroke-dasharray="2 3" stroke-width=".6"/><path d="M481 0v400" stroke="#baad99" stroke-dasharray="2 3" stroke-width=".6"/><text x="250" y="42" font-size="18" fill="#332d29" text-anchor="middle" font-weight="bold" letter-spacing="2">读书记录单</text><text x="250" y="64" font-size="9" fill="#332d29" text-anchor="middle" letter-spacing="2">READING JOURNAL · 2026.09</text><path d="M34 85h432" stroke="#6f5f4f" stroke-width=".7" /><text x="34" y="104" font-size="9" fill="#332d29" >序</text><text x="67" y="104" font-size="9" fill="#332d29" >书名 / 作者</text><text x="399" y="104" font-size="9" fill="#332d29" text-anchor="end">分钟</text><text x="466" y="104" font-size="9" fill="#332d29" text-anchor="end">状态</text><path d="M34 114h432" stroke="#6f5f4f" stroke-width=".7" /><text x="34" y="138" font-size="9" fill="#332d29" >01</text><text x="67" y="138" font-size="10" fill="#332d29" >漫步书页之间</text><text x="67" y="154" font-size="9" fill="#8b8278" >演示作者</text><text x="399" y="138" font-size="10" fill="#332d29" text-anchor="end">420</text><g transform="rotate(-5 448 138)"><text x="466" y="138" font-size="9" fill="#755846" text-anchor="end">已读完</text><text x="452" y="150" font-size="7" fill="#755846" text-anchor="middle">DONE</text><path d="M432 156h34" stroke="#6f5f4f" stroke-width=".7" /><path d="M432 158h34" stroke="#6f5f4f" stroke-width=".7" /></g><path d="M34 167h432" stroke="#6f5f4f" stroke-width=".7" /><text x="34" y="184" font-size="9" fill="#332d29" >02</text><text x="67" y="184" font-size="10" fill="#332d29" >山海与远方</text><text x="67" y="200" font-size="9" fill="#8b8278" >演示作者</text><text x="399" y="184" font-size="10" fill="#332d29" text-anchor="end">360</text><g transform="rotate(-5 448 184)"><text x="466" y="184" font-size="9" fill="#755846" text-anchor="end">已读完</text><text x="452" y="196" font-size="7" fill="#755846" text-anchor="middle">DONE</text><path d="M432 202h34" stroke="#6f5f4f" stroke-width=".7" /><path d="M432 204h34" stroke="#6f5f4f" stroke-width=".7" /></g><path d="M34 213h432" stroke="#6f5f4f" stroke-width=".7" /><text x="34" y="230" font-size="9" fill="#332d29" >03</text><text x="67" y="230" font-size="10" fill="#332d29" >缓慢的时光</text><text x="67" y="246" font-size="9" fill="#8b8278" >演示作者</text><text x="399" y="230" font-size="10" fill="#332d29" text-anchor="end">300</text><text x="466" y="230" font-size="9" fill="#332d29" text-anchor="end">在读</text><path d="M34 259h432" stroke="#6f5f4f" stroke-width=".7" /><text x="34" y="276" font-size="9" fill="#332d29" >04</text><text x="67" y="276" font-size="10" fill="#332d29" >一间自己的书房</text><text x="67" y="292" font-size="9" fill="#8b8278" >演示作者</text><text x="399" y="276" font-size="10" fill="#332d29" text-anchor="end">180</text><text x="466" y="276" font-size="9" fill="#332d29" text-anchor="end">在读</text><path d="M34 305h432" stroke="#6f5f4f" stroke-width=".7" /><path d="M34 311h432" stroke="#6f5f4f" stroke-width=".7" /><path d="M34 314h432" stroke="#6f5f4f" stroke-width=".7" /><text x="34" y="338" font-size="12" fill="#332d29" >本月合计 4 本</text><text x="466" y="338" font-size="12" fill="#332d29" text-anchor="end" font-weight="bold">1260 分钟</text><text x="250" y="373" font-size="9" fill="#8b8278" text-anchor="middle" letter-spacing="2">— 月度阅读记录 —</text><rect x="-8" y="400" width="516" height="7" rx="2" fill="#373630"/><text x="250.0" y="436" font-size="17" fill="#8a4b33" text-anchor="middle">复古 · 宽幅流水账</text></g><g transform="translate(980 145) scale(.78)"><polygon points="0,3 4,0 8,3 12,0 16,3 20,0 24,3 28,0 32,3 36,0 40,3 44,0 48,3 52,0 56,3 60,0 64,3 68,0 72,3 76,0 80,3 84,0 88,3 92,0 96,3 100,0 104,3 108,0 112,3 116,0 120,3 124,0 128,3 132,0 136,3 140,0 144,3 148,0 152,3 156,0 160,3 164,0 168,3 172,0 176,3 180,0 184,3 188,0 192,3 196,0 200,3 204,0 208,3 212,0 216,3 220,0 224,3 228,0 232,3 236,0 240,3 244,0 248,3 252,0 256,3 260,0 264,3 268,0 272,3 276,0 280,3 284,0 288,3 292,0 296,3 300,0 304,3 308,0 312,3 316,0 320,3 324,0 328,3 332,0 336,3 340,0 340,3 340,627 0,630" fill="#fcfbf6" filter="url(#s)"/><text x="24" y="40" font-size="11" fill="#332d29" letter-spacing="3">读书记录单</text><path d="M24 52h292" stroke="#6f5f4f" stroke-width=".7" /><text x="24" y="108" font-size="44" fill="#332d29" font-weight="bold">1260</text><text x="138" y="108" font-size="12" fill="#332d29" letter-spacing="2">MIN</text><text x="24" y="135" font-size="10" fill="#332d29" letter-spacing="2">2026.09 / 4 BOOKS</text><text x="24" y="189" font-size="21" fill="#c6c3bd" >01</text><text x="64" y="175" font-size="12" fill="#332d29" font-weight="bold">漫步书页之间</text><text x="64" y="195" font-size="9" fill="#8b8278" >演示作者</text><text x="64" y="216" font-size="10" fill="#332d29" letter-spacing="1">420 MIN</text><g transform="rotate(-13 292 195)"><circle cx="292" cy="195" r="21" fill="none" stroke="#b76f67"/><circle cx="292" cy="195" r="18.5" fill="none" stroke="#b76f67"/><text x="292" y="198" font-size="9" fill="#b76f67" text-anchor="middle">已读完</text></g><path d="M24 238h292" stroke="#6f5f4f" stroke-width=".7" /><text x="24" y="272" font-size="21" fill="#c6c3bd" >02</text><text x="64" y="258" font-size="12" fill="#332d29" font-weight="bold">山海与远方</text><text x="64" y="278" font-size="9" fill="#8b8278" >演示作者</text><text x="64" y="299" font-size="10" fill="#332d29" letter-spacing="1">360 MIN</text><g transform="rotate(-9 292 278)"><circle cx="292" cy="278" r="21" fill="none" stroke="#b76f67"/><circle cx="292" cy="278" r="18.5" fill="none" stroke="#b76f67"/><text x="292" y="281" font-size="9" fill="#b76f67" text-anchor="middle">已读完</text></g><path d="M24 321h292" stroke="#6f5f4f" stroke-width=".7" /><text x="24" y="355" font-size="21" fill="#c6c3bd" >03</text><text x="64" y="341" font-size="12" fill="#332d29" font-weight="bold">缓慢的时光</text><text x="64" y="361" font-size="9" fill="#8b8278" >演示作者</text><text x="64" y="382" font-size="10" fill="#332d29" letter-spacing="1">300 MIN</text><text x="292" y="364" font-size="9" fill="#a29a90" text-anchor="middle">在读</text><path d="M24 404h292" stroke="#6f5f4f" stroke-width=".7" /><text x="24" y="438" font-size="21" fill="#c6c3bd" >04</text><text x="64" y="424" font-size="12" fill="#332d29" font-weight="bold">一间自己的书房</text><text x="64" y="444" font-size="9" fill="#8b8278" >演示作者</text><text x="64" y="465" font-size="10" fill="#332d29" letter-spacing="1">180 MIN</text><text x="292" y="447" font-size="9" fill="#a29a90" text-anchor="middle">在读</text><path d="M24 487h292" stroke="#6f5f4f" stroke-width=".7" /><path d="M24 514h292" stroke="#6f5f4f" stroke-width=".7" stroke-dasharray="3 2"/><g transform="rotate(7 260 548)"><rect x="213" y="532" width="94" height="32" fill="none" stroke="#b76f67" stroke-width="2"/><rect x="210" y="529" width="100" height="38" fill="none" stroke="#b76f67" stroke-width=".5"/><text x="260" y="553" font-size="13" fill="#b76f67" text-anchor="middle" letter-spacing="3">阅读留存</text></g><text x="170" y="591" font-size="9" fill="#8b8278" text-anchor="middle">本月阅读时长 21小时</text><text x="170" y="613" font-size="9" fill="#332d29" text-anchor="middle" letter-spacing="3">KEEP READING.</text><rect x="-8" y="630" width="356" height="7" rx="2" fill="#373630"/><text x="170.0" y="666" font-size="17" fill="#8a4b33" text-anchor="middle">印章</text></g><text x="32" y="728" font-size="12" fill="#6f5f4f" >视图示意 · 演示数据；依当前代码还原宽度比例与排版，实际字体及长度以运行界面为准。</text></g></svg>